#!OML:ASF F:\VICON\USERDATA\INSTALL\rory3\rory3.ASF
:FULLY-SPECIFIED
:DEGREES
28
root -0.25963346181984726 17.69759550293799 -3.525077619260003 5.406733939844564 -0.18526242603250276 0.34156600848278584
lfemur 6.670826215093255 0.03056882250333165 -26.535078383880645
ltibia 32.34798261281095
lfoot -6.502326828782623 -2.6348019707729646
ltoes -27.698616582613887
rfemur -54.269535320687524 -3.5282097030133124 22.53371230415982
rtibia 94.52899142957061
rfoot 0.37678277205839805 -3.7341577494383342
rtoes 1.2623918599412796
lowerback 16.121579392546824 -0.6721601592264599 -4.0957688009209825
upperback -1.1117400693618131 -1.567580232493019 1.288872724440381
thorax -10.24514820452436 -0.46027384100542446 4.799465003383129
lowerneck -21.226211362666117 -2.6252483986257418 -1.6992027264934693
upperneck 13.054919899299616 -3.690300172884311 3.469668407520993
head 7.579259067156242 -1.4760393101954064 1.029526471266054
lclavicle -2.584411346342124e-15 1.1627458375281069e-15
lhumerus -30.873497274089807 -19.37627719400645 96.58583698569679
lradius 118.65076059163093
lwrist 37.45514033875374
lhand -25.10607855950776 0.5091291306838366
lfingers 7.12502
lthumb 1.4090027844054143 30.459114293742715
rclavicle -2.584411346342124e-15 1.1627458375281069e-15
rhumerus -62.895660730010356 7.033967464422477 -99.67583251665752
rradius 106.27871199283378
rwrist -13.191519242095518
rhand -15.488186779802213 39.76809770226979
rfingers 7.12502
rthumb 10.693395782616925 9.86116944839779
29
root -0.208341909108884 17.96918841408647 0.06886318658350454 5.556326259020554 -1.356659882209866 -0.15574743729397156
lfemur 10.809369438492164 -0.23568380054388754 -26.33808694751147
ltibia 27.52250655090664
lfoot 1.988638749425277 -5.779145078220202
ltoes -28.57217818855939
rfemur -54.156305482696254 -1.7966153347584188 23.3955039218542
rtibia 82.10305293161694
rfoot 0.16517286396318376 -2.5480276391135845
rtoes -3.2302062825572935
lowerback 15.42002812641573 -0.9147079741749831 -3.705309512485461
upperback -1.4876228461098955 -1.7786381598706265 1.6971494057649161
thorax -10.125498547885053 -0.5665944330662097 4.986864228128338
lowerneck -21.127297005937724 -2.3881008754615713 -1.7399251518350414
upperneck 13.74453592418326 -3.3187255181727786 3.1121488658091554
head 7.739408777144158 -1.3305052111417555 0.9371341220127525
lclavicle -2.822292428561008e-15 9.906658492232459e-16
lhumerus -31.21217382490906 -19.08915543749534 95.78049118294699
lradius 120.99927076102684
lwrist 37.68823975535716
lhand -24.831669872879345 0.48211987719482896
lfingers 7.12502
lthumb 1.6740175870255782 30.43087980128664
rclavicle -2.822292428561008e-15 9.906658492232459e-16
rhumerus -64.66927574621164 6.775945560749126 -98.78088374139708
rradius 107.60967340460562
rwrist -12.874384219378037
rhand -15.470409507585732 39.69778712758702
rfingers 7.12502
rthumb 10.710705832078629 9.82024657664857
30
root -0.16306110091358955 18.143549454704836 3.1510292685751757 5.75300797666479 -1.7085692807451922 -0.21434379490233724
lfemur 13.730135433328497 -1.1430650852755941 -26.713058234658938
ltibia 24.91879245629236
lfoot 7.698462708322331 -8.086391843613777
ltoes -27.428904806982388
rfemur -53.48344309237518 -0.7374424915368405 23.64131455411855
rtibia 71.78813329085138
rfoot 0.38965740512610925 -2.0355907871747014
rtoes -7.246596650323944
lowerback 14.92430390730546 -1.2143207928585156 -3.5219372864588774
upperback -1.7484346169414566 -2.109047898439774 1.9012462621125654
thorax -10.011997190198482 -0.7231525862905069 5.16743807947326
lowerneck -21.00951138537472 -2.1970920709202635 -1.8663892781744396
upperneck 14.035300488583987 -3.0080215495213842 2.969545732607605
head 7.792571598650809 -1.2019031597616232 0.9345083625159971
lclavicle -2.811167372980491e-15 9.981756520672187e-16
lhumerus -31.315822370206426 -19.327308964651884 95.09978240119652
lradius 122.80381700853971
lwrist 37.46888250670223
lhand -24.50395362218866 0.30910551908142514
lfingers 7.12502
lthumb 1.9905312828258346 30.255324749409386
rclavicle -2.811167372980491e-15 9.981756520672187e-16
rhumerus -66.30620051277373 6.114389718707013 -98.0253083066109
rradius 108.9795116994332
rwrist -12.72068079233488
rhand -15.28260987686401 39.86047872085077
rfingers 7.12502
rthumb 10.891783643607482 9.943287912434174
31
root -0.08425886450790304 18.397852972008174 5.931519319142094 5.92305028770882 -2.5263907918372257 -0.17057517379728138
lfemur 18.126691806571635 -1.752539958516809 -26.691986517822468
ltibia 24.224443220070103
lfoot 16.3541778820216 -10.746045401074662
ltoes -24.024917339540714
rfemur -51.11240177434921 0.6606875988399731 24.46096882011546
rtibia 59.49221047901689
rfoot 1.7374154684117502 -0.6274194320676312
rtoes -11.484646681558885
lowerback 14.476235224417163 -1.3627519682967102 -3.1222501963076956
upperback -1.9128956460942987 -2.2127146645890976 2.2179037561225416
thorax -9.831748451663106 -0.7869344379686521 5.461887422560623
lowerneck -20.820180619920862 -1.9843028263659481 -1.9203709857377287
upperneck 14.536335746011138 -2.6489346789297197 2.740498564300074
head 7.904835870643773 -1.0645718622872533 0.8852418356476139
lclavicle -1.5860833760822086e-15 1.8865347414456332e-15
lhumerus -31.15607755657743 -19.572613866956367 94.68877305740641
lradius 123.79325251953546
lwrist 36.93588174628026
lhand -24.26527923063995 0.4018056191728503
lfingers 7.12502
lthumb 2.221062397146083 30.347644381633916
rclavicle -1.5860833760822086e-15 1.8865347414456332e-15
rhumerus -67.21452139902077 5.1352385696957255 -96.48023896870421
rradius 110.02408156534221
rwrist -11.590836547927719
rhand -15.427664358521568 39.94519676542716
rfingers 7.12502
rthumb 10.751922617468137 10.004506836724504
